{
  "accessors": [
    {
      "bufferView": 2,
      "componentType": 5126,
      "count": 4,
      "max": [
        1.0,
        1.0,
        0.0
      ],
      "min": [
        -1.0,
        -1.0,
        0.0
      ],
      "type": "VEC3"
    },
    {
      "bufferView": 2,
      "byteOffset": 48,
      "componentType": 5126,
      "count": 4,
      "max": [
        0.0,
        0.0,
        1.0
      ],
      "min": [
        0.0,
        0.0,
        1.0
      ],
      "type": "VEC3"
    },
    {
      "bufferView": 0,
      "componentType": 5125,
      "count": 6,
      "type": "SCALAR"
    },
    {
      "bufferView": 2,
      "byteOffset": 96,
      "componentType": 5126,
      "count": 45156,
      "max": [
        9.476225852966309,
        4.726513385772705,
        2.0521020889282227
      ],
      "min": [
        -3.7434229850769043,
        -4.693636894226074,
        -3.029632568359375
      ],
      "type": "VEC3"
    },
    {
      "bufferView": 2,
      "byteOffset": 541968,
      "componentType": 5126,
      "count": 45156,
      "max": [
        1.0,
        1.0,
        1.0
      ],
      "min": [
        -1.0,
        -1.0,
        -1.0
      ],
      "type": "VEC3"
    },
    {
      "bufferView": 3,
      "componentType": 5126,
      "count": 45156,
      "max": [
        1.0,
        1.0,
        1.0,
        1.0
      ],
      "min": [
        -1.0,
        -1.0,
        -1.0,
        -1.0
      ],
      "type": "VEC4"
    },
    {
      "bufferView": 1,
      "componentType": 5126,
      "count": 45156,
      "max": [
        0.9897245764732361,
        0.985867440700531
      ],
      "min": [
        0.012075496837496758,
        0.001873701810836792
      ],
      "type": "VEC2"
    },
    {
      "bufferView": 1,
      "byteOffset": 361248,
      "componentType": 5126,
      "count": 45156,
      "max": [
        0.9897245764732361,
        0.985867440700531
      ],
      "min": [
        0.012075496837496758,
        0.001873701810836792
      ],
      "type": "VEC2"
    },
    {
      "bufferView": 1,
      "byteOffset": 722496,
      "componentType": 5126,
      "count": 45156,
      "max": [
        0.9897245764732361,
        0.985867440700531
      ],
      "min": [
        0.012075496837496758,
        0.001873701810836792
      ],
      "type": "VEC2"
    },
    {
      "bufferView": 0,
      "byteOffset": 24,
      "componentType": 5125,
      "count": 197424,
      "type": "SCALAR"
    }
  ],
  "asset": {
    "extras": {
      "author": "ferofluid (https://sketchfab.com/ferofluid)",
      "license": "CC-BY-4.0 (http://creativecommons.org/licenses/by/4.0/)",
      "source": "https://sketchfab.com/3d-models/bicycle-parking-38c8c08eecd74911a90eb06e4236943d",
      "title": "BICYCLE PARKING"
    },
    "generator": "Sketchfab-12.65.0",
    "version": "2.0"
  },
  "bufferViews": [
    {
      "buffer": 0,
      "byteLength": 789720,
      "name": "floatBufferViews",
      "target": 34963
    },
    {
      "buffer": 0,
      "byteLength": 1083744,
      "byteOffset": 789720,
      "byteStride": 8,
      "name": "floatBufferViews",
      "target": 34962
    },
    {
      "buffer": 0,
      "byteLength": 1083840,
      "byteOffset": 1873464,
      "byteStride": 12,
      "name": "floatBufferViews",
      "target": 34962
    },
    {
      "buffer": 0,
      "byteLength": 722496,
      "byteOffset": 2957304,
      "byteStride": 16,
      "name": "floatBufferViews",
      "target": 34962
    }
  ],
  "buffers": [
    {
      "byteLength": 3679800,
      "uri": "scene.bin"
    }
  ],
  "images": [
    {
      "uri": "textures/MAIN_baseColor.jpeg"
    },
    {
      "uri": "textures/MAIN_metallicRoughness.png"
    },
    {
      "uri": "textures/MAIN_normal.jpeg"
    }
  ],
  "materials": [
    {
      "doubleSided": true,
      "name": "floor__0",
      "pbrMetallicRoughness": {
        "baseColorFactor": [
          0.2618891782,
          0.2033334387,
          0.1121807046,
          1.0
        ],
        "metallicFactor": 0.0,
        "roughnessFactor": 0.6
      }
    },
    {
      "doubleSided": true,
      "name": "MAIN",
      "normalTexture": {
        "index": 2
      },
      "occlusionTexture": {
        "index": 1
      },
      "pbrMetallicRoughness": {
        "baseColorTexture": {
          "index": 0
        },
        "metallicRoughnessTexture": {
          "index": 1
        }
      }
    }
  ],
  "meshes": [
    {
      "name": "floor__0",
      "primitives": [
        {
          "attributes": {
            "NORMAL": 1,
            "POSITION": 0
          },
          "indices": 2,
          "material": 0,
          "mode": 4
        }
      ]
    },
    {
      "name": "bic_main_MAIN_0",
      "primitives": [
        {
          "attributes": {
            "NORMAL": 4,
            "POSITION": 3,
            "TANGENT": 5,
            "TEXCOORD_0": 6,
            "TEXCOORD_1": 7,
            "TEXCOORD_2": 8
          },
          "indices": 9,
          "material": 1,
          "mode": 4
        }
      ]
    }
  ],
  "nodes": [
    {
      "children": [
        1
      ],
      "matrix": [
        0.0021806429140269756,
        0.0,
        0.0,
        0.0,
        0.0,
        4.841999943276888e-19,
        -0.0021806429140269756,
        0.0,
        0.0,
        0.0021806429140269756,
        4.841999943276888e-19,
        0.0,
        0.0,
        0.0,
        0.0,
        1.0
      ],
      "name": "Sketchfab_model"
    },
    {
      "children": [
        2
      ],
      "matrix": [
        1.0,
        0.0,
        0.0,
        0.0,
        0.0,
        0.0,
        1.0,
        0.0,
        0.0,
        -1.0,
        0.0,
        0.0,
        0.0,
        0.0,
        0.0,
        1.0
      ],
      "name": "e7a7d3a64cda416c97bb67bc095f5215.fbx"
    },
    {
      "children": [
        3,
        5
      ],
      "name": "RootNode"
    },
    {
      "children": [
        4
      ],
      "matrix": [
        975.877197265625,
        0.0,
        0.0,
        0.0,
        0.0,
        -0.0001589905759815119,
        -975.8771972656122,
        0.0,
        0.0,
        975.8771972656122,
        -0.0001589905759815119,
        0.0,
        0.0,
        0.7017292380332947,
        0.0,
        1.0
      ],
      "name": "floor"
    },
    {
      "mesh": 0,
      "name": "floor__0"
    },
    {
      "children": [
        6
      ],
      "matrix": [
        100.0,
        0.0,
        0.0,
        0.0,
        -0.0,
        -1.629206793918314e-05,
        -99.99999999999868,
        0.0,
        0.0,
        99.99999999999868,
        -1.629206793918314e-05,
        0.0,
        -270.59375,
        301.8266296386719,
        0.0,
        1.0
      ],
      "name": "bic_main"
    },
    {
      "mesh": 1,
      "name": "bic_main_MAIN_0"
    }
  ],
  "samplers": [
    {
      "magFilter": 9729,
      "minFilter": 9987,
      "wrapS": 10497,
      "wrapT": 10497
    }
  ],
  "scene": 0,
  "scenes": [
    {
      "name": "Sketchfab_Scene",
      "nodes": [
        0
      ]
    }
  ],
  "textures": [
    {
      "sampler": 0,
      "source": 0
    },
    {
      "sampler": 0,
      "source": 1
    },
    {
      "sampler": 0,
      "source": 2
    }
  ]
}
