{
  "accessors": [
    {
      "bufferView": 2,
      "componentType": 5126,
      "count": 23056,
      "max": [
        7.7104268074035645,
        16.407550811767578,
        1.2996411323547363
      ],
      "min": [
        -10.221590042114258,
        -5.480173587799072,
        -37.915374755859375
      ],
      "type": "VEC3"
    },
    {
      "bufferView": 2,
      "byteOffset": 276672,
      "componentType": 5126,
      "count": 23056,
      "max": [
        0.9999892115592957,
        0.9998379349708557,
        1.0
      ],
      "min": [
        -0.9999761581420898,
        -0.9999988675117493,
        -1.0
      ],
      "type": "VEC3"
    },
    {
      "bufferView": 3,
      "componentType": 5126,
      "count": 23056,
      "max": [
        0.9992418885231018,
        0.9998635053634644,
        1.0,
        1.0
      ],
      "min": [
        -0.9998481273651123,
        -0.9999845027923584,
        -1.0,
        -1.0
      ],
      "type": "VEC4"
    },
    {
      "bufferView": 1,
      "componentType": 5126,
      "count": 23056,
      "max": [
        0.9881003499031067,
        0.9915031790733337
      ],
      "min": [
        0.008496284484863281,
        0.008496284484863281
      ],
      "type": "VEC2"
    },
    {
      "bufferView": 1,
      "byteOffset": 184448,
      "componentType": 5126,
      "count": 23056,
      "max": [
        0.9881003499031067,
        0.9915031790733337
      ],
      "min": [
        0.008496284484863281,
        0.008496284484863281
      ],
      "type": "VEC2"
    },
    {
      "bufferView": 1,
      "byteOffset": 368896,
      "componentType": 5126,
      "count": 23056,
      "max": [
        0.9881003499031067,
        0.9915031790733337
      ],
      "min": [
        0.008496284484863281,
        0.008496284484863281
      ],
      "type": "VEC2"
    },
    {
      "bufferView": 1,
      "byteOffset": 553344,
      "componentType": 5126,
      "count": 23056,
      "max": [
        0.9881003499031067,
        0.9915031790733337
      ],
      "min": [
        0.008496284484863281,
        0.008496284484863281
      ],
      "type": "VEC2"
    },
    {
      "bufferView": 0,
      "componentType": 5125,
      "count": 83040,
      "type": "SCALAR"
    },
    {
      "bufferView": 2,
      "byteOffset": 553344,
      "componentType": 5126,
      "count": 5644,
      "max": [
        0.11188454180955887,
        1.1738061904907227,
        1.757785677909851
      ],
      "min": [
        -1.2038359642028809,
        -0.05476239696145058,
        -1.7577855587005615
      ],
      "type": "VEC3"
    },
    {
      "bufferView": 2,
      "byteOffset": 621072,
      "componentType": 5126,
      "count": 5644,
      "max": [
        0.9999744296073914,
        0.999862551689148,
        1.0
      ],
      "min": [
        -0.9997721910476685,
        -0.9997553825378418,
        -1.0
      ],
      "type": "VEC3"
    },
    {
      "bufferView": 3,
      "byteOffset": 368896,
      "componentType": 5126,
      "count": 5644,
      "max": [
        0.9998629689216614,
        0.9999744296073914,
        1.0,
        1.0
      ],
      "min": [
        -0.9998520612716675,
        -1.0,
        -1.0,
        1.0
      ],
      "type": "VEC4"
    },
    {
      "bufferView": 1,
      "byteOffset": 737792,
      "componentType": 5126,
      "count": 5644,
      "max": [
        0.9986003637313843,
        0.9990234375
      ],
      "min": [
        0.0009765625,
        0.0009765625
      ],
      "type": "VEC2"
    },
    {
      "bufferView": 1,
      "byteOffset": 782944,
      "componentType": 5126,
      "count": 5644,
      "max": [
        0.9986003637313843,
        0.9990234375
      ],
      "min": [
        0.0009765625,
        0.0009765625
      ],
      "type": "VEC2"
    },
    {
      "bufferView": 1,
      "byteOffset": 828096,
      "componentType": 5126,
      "count": 5644,
      "max": [
        0.9986003637313843,
        0.9990234375
      ],
      "min": [
        0.0009765625,
        0.0009765625
      ],
      "type": "VEC2"
    },
    {
      "bufferView": 1,
      "byteOffset": 873248,
      "componentType": 5126,
      "count": 5644,
      "max": [
        0.9986003637313843,
        0.9990234375
      ],
      "min": [
        0.0009765625,
        0.0009765625
      ],
      "type": "VEC2"
    },
    {
      "bufferView": 0,
      "byteOffset": 332160,
      "componentType": 5125,
      "count": 26028,
      "type": "SCALAR"
    },
    {
      "bufferView": 2,
      "byteOffset": 688800,
      "componentType": 5126,
      "count": 12842,
      "max": [
        1.9109911918640137,
        2.3705456256866455,
        1.9028997421264648
      ],
      "min": [
        -1.9253402948379517,
        -0.14849106967449188,
        -321.4006042480469
      ],
      "type": "VEC3"
    },
    {
      "bufferView": 2,
      "byteOffset": 842904,
      "componentType": 5126,
      "count": 12842,
      "max": [
        0.9999991059303284,
        0.9999147057533264,
        1.0
      ],
      "min": [
        -0.9999960660934448,
        -0.9994407892227173,
        -1.0
      ],
      "type": "VEC3"
    },
    {
      "bufferView": 0,
      "byteOffset": 436272,
      "componentType": 5125,
      "count": 75264,
      "type": "SCALAR"
    },
    {
      "bufferView": 2,
      "byteOffset": 997008,
      "componentType": 5126,
      "count": 12842,
      "max": [
        1.9109911918640137,
        2.370544910430908,
        1.9028997421264648
      ],
      "min": [
        -1.9253392219543457,
        -0.14849130809307098,
        -321.40057373046875
      ],
      "type": "VEC3"
    },
    {
      "bufferView": 2,
      "byteOffset": 1151112,
      "componentType": 5126,
      "count": 12842,
      "max": [
        0.9999991059303284,
        0.9999147057533264,
        1.0
      ],
      "min": [
        -0.9999960660934448,
        -0.9994407892227173,
        -1.0
      ],
      "type": "VEC3"
    },
    {
      "bufferView": 0,
      "byteOffset": 737328,
      "componentType": 5125,
      "count": 75264,
      "type": "SCALAR"
    },
    {
      "bufferView": 2,
      "byteOffset": 1305216,
      "componentType": 5126,
      "count": 12842,
      "max": [
        1.9109911918640137,
        2.370544910430908,
        1.9028997421264648
      ],
      "min": [
        -1.9253430366516113,
        -0.14849106967449188,
        -321.40057373046875
      ],
      "type": "VEC3"
    },
    {
      "bufferView": 2,
      "byteOffset": 1459320,
      "componentType": 5126,
      "count": 12842,
      "max": [
        0.9999991059303284,
        0.9999147057533264,
        1.0
      ],
      "min": [
        -0.9999960660934448,
        -0.9994407892227173,
        -1.0
      ],
      "type": "VEC3"
    },
    {
      "bufferView": 0,
      "byteOffset": 1038384,
      "componentType": 5125,
      "count": 75264,
      "type": "SCALAR"
    },
    {
      "bufferView": 2,
      "byteOffset": 1613424,
      "componentType": 5126,
      "count": 12842,
      "max": [
        1.9109911918640137,
        2.370544910430908,
        1.9028997421264648
      ],
      "min": [
        -1.9253392219543457,
        -0.14849130809307098,
        -321.4006042480469
      ],
      "type": "VEC3"
    },
    {
      "bufferView": 2,
      "byteOffset": 1767528,
      "componentType": 5126,
      "count": 12842,
      "max": [
        0.9999991059303284,
        0.9999147057533264,
        1.0
      ],
      "min": [
        -0.9999960660934448,
        -0.9994409084320068,
        -1.0
      ],
      "type": "VEC3"
    },
    {
      "bufferView": 0,
      "byteOffset": 1339440,
      "componentType": 5125,
      "count": 75264,
      "type": "SCALAR"
    },
    {
      "bufferView": 2,
      "byteOffset": 1921632,
      "componentType": 5126,
      "count": 12842,
      "max": [
        1.9110138416290283,
        2.3705523014068604,
        1.9028997421264648
      ],
      "min": [
        -1.9253392219543457,
        -0.14849106967449188,
        -321.4006042480469
      ],
      "type": "VEC3"
    },
    {
      "bufferView": 2,
      "byteOffset": 2075736,
      "componentType": 5126,
      "count": 12842,
      "max": [
        0.9999991059303284,
        0.9999147057533264,
        1.0
      ],
      "min": [
        -0.9999960660934448,
        -0.9994407892227173,
        -1.0
      ],
      "type": "VEC3"
    },
    {
      "bufferView": 0,
      "byteOffset": 1640496,
      "componentType": 5125,
      "count": 75264,
      "type": "SCALAR"
    },
    {
      "bufferView": 2,
      "byteOffset": 2229840,
      "componentType": 5126,
      "count": 12842,
      "max": [
        1.9110329151153564,
        2.370636224746704,
        1.9028997421264648
      ],
      "min": [
        -1.9253392219543457,
        -0.14849106967449188,
        -321.40057373046875
      ],
      "type": "VEC3"
    },
    {
      "bufferView": 2,
      "byteOffset": 2383944,
      "componentType": 5126,
      "count": 12842,
      "max": [
        0.9999991059303284,
        0.9999147057533264,
        1.0
      ],
      "min": [
        -0.9999960660934448,
        -0.9994407892227173,
        -1.0
      ],
      "type": "VEC3"
    },
    {
      "bufferView": 0,
      "byteOffset": 1941552,
      "componentType": 5125,
      "count": 75264,
      "type": "SCALAR"
    },
    {
      "bufferView": 2,
      "byteOffset": 2538048,
      "componentType": 5126,
      "count": 12842,
      "max": [
        1.9110357761383057,
        2.370636224746704,
        1.9028997421264648
      ],
      "min": [
        -1.9253392219543457,
        -0.14849106967449188,
        -321.4006042480469
      ],
      "type": "VEC3"
    },
    {
      "bufferView": 2,
      "byteOffset": 2692152,
      "componentType": 5126,
      "count": 12842,
      "max": [
        0.9999991059303284,
        0.9999147057533264,
        1.0
      ],
      "min": [
        -0.9999960660934448,
        -0.9994407892227173,
        -1.0
      ],
      "type": "VEC3"
    },
    {
      "bufferView": 0,
      "byteOffset": 2242608,
      "componentType": 5125,
      "count": 75264,
      "type": "SCALAR"
    },
    {
      "bufferView": 2,
      "byteOffset": 2846256,
      "componentType": 5126,
      "count": 12842,
      "max": [
        1.9110262393951416,
        2.3706209659576416,
        1.9028997421264648
      ],
      "min": [
        -1.9253392219543457,
        -0.14849106967449188,
        -321.4006042480469
      ],
      "type": "VEC3"
    },
    {
      "bufferView": 2,
      "byteOffset": 3000360,
      "componentType": 5126,
      "count": 12842,
      "max": [
        0.9999991059303284,
        0.9999147057533264,
        1.0
      ],
      "min": [
        -0.9999960660934448,
        -0.9994408488273621,
        -1.0
      ],
      "type": "VEC3"
    },
    {
      "bufferView": 0,
      "byteOffset": 2543664,
      "componentType": 5125,
      "count": 75264,
      "type": "SCALAR"
    },
    {
      "bufferView": 2,
      "byteOffset": 3154464,
      "componentType": 5126,
      "count": 12842,
      "max": [
        1.9110254049301147,
        2.3706209659576416,
        1.9028997421264648
      ],
      "min": [
        -1.9253392219543457,
        -0.14849106967449188,
        -321.4005432128906
      ],
      "type": "VEC3"
    },
    {
      "bufferView": 2,
      "byteOffset": 3308568,
      "componentType": 5126,
      "count": 12842,
      "max": [
        0.9999991059303284,
        0.9999147057533264,
        1.0
      ],
      "min": [
        -0.9999960660934448,
        -0.9994408488273621,
        -1.0
      ],
      "type": "VEC3"
    },
    {
      "bufferView": 0,
      "byteOffset": 2844720,
      "componentType": 5125,
      "count": 75264,
      "type": "SCALAR"
    }
  ],
  "asset": {
    "extras": {
      "author": "Sleepton (https://sketchfab.com/Sleepton)",
      "license": "SKETCHFAB Standard (https://sketchfab.com/licenses)",
      "source": "https://sketchfab.com/3d-models/bench-544892c56ef844c3b505226a7479c68b",
      "title": "bench"
    },
    "generator": "Sketchfab-15.49.0",
    "version": "2.0"
  },
  "bufferViews": [
    {
      "buffer": 0,
      "byteLength": 3145776,
      "name": "floatBufferViews",
      "target": 34963
    },
    {
      "buffer": 0,
      "byteLength": 918400,
      "byteOffset": 3145776,
      "byteStride": 8,
      "name": "floatBufferViews",
      "target": 34962
    },
    {
      "buffer": 0,
      "byteLength": 3462672,
      "byteOffset": 4064176,
      "byteStride": 12,
      "name": "floatBufferViews",
      "target": 34962
    },
    {
      "buffer": 0,
      "byteLength": 459200,
      "byteOffset": 7526848,
      "byteStride": 16,
      "name": "floatBufferViews",
      "target": 34962
    }
  ],
  "buffers": [
    {
      "byteLength": 7986048,
      "uri": "scene.bin"
    }
  ],
  "images": [
    {
      "uri": "textures/Metal_baseColor.png"
    },
    {
      "uri": "textures/Metal_metallicRoughness.png"
    },
    {
      "uri": "textures/Metal_normal.png"
    },
    {
      "uri": "textures/Wood_Mahogany_Glossy.001_baseColor.png"
    },
    {
      "uri": "textures/Wood_Mahogany_Glossy.001_metallicRoughness.png"
    },
    {
      "uri": "textures/Wood_Mahogany_Glossy.001_normal.png"
    }
  ],
  "materials": [
    {
      "doubleSided": true,
      "name": "Metal",
      "normalTexture": {
        "index": 2
      },
      "pbrMetallicRoughness": {
        "baseColorTexture": {
          "index": 0
        },
        "metallicRoughnessTexture": {
          "index": 1
        }
      }
    },
    {
      "doubleSided": true,
      "name": "Wood_Mahogany_Glossy.001",
      "normalTexture": {
        "index": 5
      },
      "pbrMetallicRoughness": {
        "baseColorTexture": {
          "index": 3
        },
        "metallicRoughnessTexture": {
          "index": 4
        }
      }
    },
    {
      "doubleSided": true,
      "name": "Metal_2",
      "pbrMetallicRoughness": {
        "baseColorFactor": [
          0.110689,
          0.110689,
          0.110689,
          1.0
        ]
      }
    }
  ],
  "meshes": [
    {
      "name": "Object_0",
      "primitives": [
        {
          "attributes": {
            "NORMAL": 1,
            "POSITION": 0,
            "TANGENT": 2,
            "TEXCOORD_0": 3,
            "TEXCOORD_1": 4,
            "TEXCOORD_2": 5,
            "TEXCOORD_3": 6
          },
          "indices": 7,
          "material": 0,
          "mode": 4
        }
      ]
    },
    {
      "name": "Object_1",
      "primitives": [
        {
          "attributes": {
            "NORMAL": 9,
            "POSITION": 8,
            "TANGENT": 10,
            "TEXCOORD_0": 11,
            "TEXCOORD_1": 12,
            "TEXCOORD_2": 13,
            "TEXCOORD_3": 14
          },
          "indices": 15,
          "material": 1,
          "mode": 4
        }
      ]
    },
    {
      "name": "Object_2",
      "primitives": [
        {
          "attributes": {
            "NORMAL": 17,
            "POSITION": 16
          },
          "indices": 18,
          "material": 2,
          "mode": 4
        }
      ]
    },
    {
      "name": "Object_3",
      "primitives": [
        {
          "attributes": {
            "NORMAL": 20,
            "POSITION": 19
          },
          "indices": 21,
          "material": 2,
          "mode": 4
        }
      ]
    },
    {
      "name": "Object_4",
      "primitives": [
        {
          "attributes": {
            "NORMAL": 23,
            "POSITION": 22
          },
          "indices": 24,
          "material": 2,
          "mode": 4
        }
      ]
    },
    {
      "name": "Object_5",
      "primitives": [
        {
          "attributes": {
            "NORMAL": 26,
            "POSITION": 25
          },
          "indices": 27,
          "material": 2,
          "mode": 4
        }
      ]
    },
    {
      "name": "Object_6",
      "primitives": [
        {
          "attributes": {
            "NORMAL": 29,
            "POSITION": 28
          },
          "indices": 30,
          "material": 2,
          "mode": 4
        }
      ]
    },
    {
      "name": "Object_7",
      "primitives": [
        {
          "attributes": {
            "NORMAL": 32,
            "POSITION": 31
          },
          "indices": 33,
          "material": 2,
          "mode": 4
        }
      ]
    },
    {
      "name": "Object_8",
      "primitives": [
        {
          "attributes": {
            "NORMAL": 35,
            "POSITION": 34
          },
          "indices": 36,
          "material": 2,
          "mode": 4
        }
      ]
    },
    {
      "name": "Object_9",
      "primitives": [
        {
          "attributes": {
            "NORMAL": 38,
            "POSITION": 37
          },
          "indices": 39,
          "material": 2,
          "mode": 4
        }
      ]
    },
    {
      "name": "Object_10",
      "primitives": [
        {
          "attributes": {
            "NORMAL": 41,
            "POSITION": 40
          },
          "indices": 42,
          "material": 2,
          "mode": 4
        }
      ]
    }
  ],
  "nodes": [
    {
      "children": [
        1
      ],
      "matrix": [
        1.0,
        0.0,
        0.0,
        0.0,
        0.0,
        2.220446049250313e-16,
        -1.0,
        0.0,
        0.0,
        1.0,
        2.220446049250313e-16,
        0.0,
        0.0,
        0.0,
        0.0,
        1.0
      ],
      "name": "Sketchfab_model"
    },
    {
      "children": [
        2
      ],
      "name": "root"
    },
    {
      "children": [
        3,
        5,
        7,
        9,
        11,
        13,
        15,
        17,
        19,
        21,
        23
      ],
      "matrix": [
        1.0,
        0.0,
        0.0,
        0.0,
        0.0,
        2.220446049250313e-16,
        1.0,
        0.0,
        0.0,
        -1.0,
        2.220446049250313e-16,
        0.0,
        0.0,
        0.0,
        0.0,
        1.0
      ],
      "name": "GLTF_SceneRootNode"
    },
    {
      "children": [
        4
      ],
      "matrix": [
        0.09358356148004532,
        0.0,
        0.0,
        0.0,
        0.0,
        0.09358356148004532,
        0.0,
        0.0,
        0.0,
        0.0,
        0.09358356148004532,
        0.0,
        0.0,
        0.40122658014297485,
        1.713315486907959,
        1.0
      ],
      "name": "tesuri_0"
    },
    {
      "mesh": 0,
      "name": "Object_4"
    },
    {
      "children": [
        6
      ],
      "matrix": [
        0.9971058776212726,
        0.07602544845715663,
        0.0,
        0.0,
        -0.07602544845715663,
        0.9971058776212726,
        0.0,
        0.0,
        0.0,
        0.0,
        1.0,
        0.0,
        0.4211846590042114,
        0.9685680866241455,
        0.0,
        1.0
      ],
      "name": "Wood.001_1"
    },
    {
      "mesh": 1,
      "name": "Object_6"
    },
    {
      "children": [
        8
      ],
      "matrix": [
        0.010642481332626057,
        0.0009861821843979099,
        0.0,
        0.0,
        -0.00046105414427019125,
        0.00497551081468897,
        0.0,
        0.0,
        0.0,
        0.0,
        0.010688075795769691,
        0.0,
        0.4066646099090576,
        1.0163689851760864,
        1.7074075937271118,
        1.0
      ],
      "name": "Bolt.002_2"
    },
    {
      "mesh": 2,
      "name": "Object_8"
    },
    {
      "children": [
        10
      ],
      "matrix": [
        0.010629979945678398,
        0.001112874912374701,
        0.0,
        0.0,
        -0.0005202847896891793,
        0.004969666239160704,
        0.0,
        0.0,
        0.0,
        0.0,
        0.010688075795769691,
        0.0,
        0.17530173063278198,
        0.9977267980575562,
        1.7074075937271118,
        1.0
      ],
      "name": "Bolt.001_3"
    },
    {
      "mesh": 3,
      "name": "Object_10"
    },
    {
      "children": [
        12
      ],
      "matrix": [
        0.010629979945678398,
        0.001112874912374701,
        0.0,
        0.0,
        -0.0005202847896891793,
        0.004969666239160704,
        0.0,
        0.0,
        0.0,
        0.0,
        0.010688075795769691,
        0.0,
        -0.07004278898239136,
        0.9790846109390259,
        1.7074075937271118,
        1.0
      ],
      "name": "Bolt.003_4"
    },
    {
      "mesh": 4,
      "name": "Object_12"
    },
    {
      "children": [
        14
      ],
      "matrix": [
        0.010640863427332257,
        0.0010034887826880401,
        0.0,
        0.0,
        -0.00046914522418536485,
        0.004974754421040266,
        0.0,
        0.0,
        0.0,
        0.0,
        0.010688075795769691,
        0.0,
        -0.3040120601654053,
        0.9628742933273315,
        1.7074075937271118,
        1.0
      ],
      "name": "Bolt.004_5"
    },
    {
      "mesh": 5,
      "name": "Object_14"
    },
    {
      "children": [
        16
      ],
      "matrix": [
        0.00931290795701027,
        -0.005244493264403408,
        0.0,
        0.0,
        0.0024518749095295664,
        0.004353916423067281,
        0.0,
        0.0,
        0.0,
        0.0,
        0.010688075795769691,
        0.0,
        -0.5196096301078796,
        1.012585997581482,
        1.7074075937271118,
        1.0
      ],
      "name": "Bolt.005_6"
    },
    {
      "mesh": 6,
      "name": "Object_16"
    },
    {
      "children": [
        18
      ],
      "matrix": [
        0.0014036761338436794,
        -0.010595501759114365,
        0.0,
        0.0,
        0.004953547198425879,
        0.0006562384810438477,
        0.0,
        0.0,
        0.0,
        0.0,
        0.010688075795769691,
        0.0,
        -0.6184927225112915,
        1.2044084072113037,
        1.7074075937271118,
        1.0
      ],
      "name": "Bolt.006_7"
    },
    {
      "mesh": 7,
      "name": "Object_18"
    },
    {
      "children": [
        20
      ],
      "matrix": [
        0.0019253136366840446,
        -0.010513236020204073,
        0.0,
        0.0,
        0.004915086799874676,
        0.0009001114046235183,
        0.0,
        0.0,
        0.0,
        0.0,
        0.010688075795769691,
        0.0,
        -0.6492924094200134,
        1.444861888885498,
        1.7074075937271118,
        1.0
      ],
      "name": "Bolt.007_8"
    },
    {
      "mesh": 8,
      "name": "Object_20"
    },
    {
      "children": [
        22
      ],
      "matrix": [
        0.0019253136366840446,
        -0.010513236020204073,
        0.0,
        0.0,
        0.004915086799874676,
        0.0009001114046235183,
        0.0,
        0.0,
        0.0,
        0.0,
        0.010688075795769691,
        0.0,
        -0.6930603384971619,
        1.7139534950256348,
        1.7074075937271118,
        1.0
      ],
      "name": "Bolt.008_9"
    },
    {
      "mesh": 9,
      "name": "Object_22"
    },
    {
      "children": [
        24
      ],
      "matrix": [
        0.0025568489167751784,
        -0.010377740015673138,
        0.0,
        0.0,
        0.00485174049793435,
        0.0011953630961926795,
        0.0,
        0.0,
        0.0,
        0.0,
        0.010688075795769691,
        0.0,
        -0.7416913509368896,
        1.952785849571228,
        1.7074075937271118,
        1.0
      ],
      "name": "Bolt.009_10"
    },
    {
      "mesh": 10,
      "name": "Object_24"
    }
  ],
  "samplers": [
    {
      "magFilter": 9729,
      "minFilter": 9987,
      "wrapS": 10497,
      "wrapT": 10497
    }
  ],
  "scene": 0,
  "scenes": [
    {
      "name": "Sketchfab_Scene",
      "nodes": [
        0
      ]
    }
  ],
  "textures": [
    {
      "sampler": 0,
      "source": 0
    },
    {
      "sampler": 0,
      "source": 1
    },
    {
      "sampler": 0,
      "source": 2
    },
    {
      "sampler": 0,
      "source": 3
    },
    {
      "sampler": 0,
      "source": 4
    },
    {
      "sampler": 0,
      "source": 5
    }
  ]
}
